<svg xmlns="http://www.w3.org/2000/svg" viewBox="0 0 48 48">
  <path 
    d="M24 4C12.95 4 4 12.95 4 24s8.95 20 20 20 20-8.95 20-20S35.05 4 24 4zm0 36c-8.84 0-16-7.16-16-16S15.16 8 24 8s16 7.16 16 16-7.16 16-16 16z" 
    fill="#40c057"
  />
  <path 
    d="M24 8c-3.31 0-6 2.69-6 6s2.69 6 6 6 6-2.69 6-6-2.69-6-6-6zm0 10c-2.21 0-4-1.79-4-4s1.79-4 4-4 4 1.79 4 4-1.79 4-4 4z" 
    fill="#fff"
  />
  <path 
    d="M24 36c-3.31 0-6-2.69-6-6s2.69-6 6-6 6 2.69 6 6-2.69 6-6 6zm0-10c-2.21 0-4 1.79-4 4s1.79 4 4 4 4-1.79 4-4-1.79-4-4-4z" 
    fill="#fff"
  />
  <path 
    d="M36 24c0-3.31-2.69-6-6-6s-6 2.69-6 6 2.69 6 6 6 6-2.69 6-6zm-8 0c0-2.21 1.79-4 4-4s4 1.79 4 4-1.79 4-4 4-4-1.79-4-4z" 
    fill="#fff"
  />
</svg>
