<?xml version="1.0" standalone="no"?><!DOCTYPE svg PUBLIC "-//W3C//DTD SVG 1.1//EN" "http://www.w3.org/Graphics/SVG/1.1/DTD/svg11.dtd"><svg t="1779954016595" class="icon" viewBox="0 0 1024 1024" version="1.1" xmlns="http://www.w3.org/2000/svg" p-id="63721" data-spm-anchor-id="a313x.search_index.0.i14.23a63a81l7i8DN" xmlns:xlink="http://www.w3.org/1999/xlink" width="200" height="200"><path d="M994.304 505.856c0 265.728-215.552 481.28-481.28 481.28s-481.28-215.552-481.28-481.28 215.552-481.28 481.28-481.28 481.28 215.552 481.28 481.28" fill="#fff282" p-id="63722" data-spm-anchor-id="a313x.search_index.0.i15.23a63a81l7i8DN" class="selected"></path><path d="M982.016 505.856c0 259.072-209.92 468.992-468.992 468.992-259.072 0-468.992-209.92-468.992-468.992 0-259.072 209.92-468.992 468.992-468.992 259.072 0 468.992 209.92 468.992 468.992" fill="#f4ea2a" p-id="63723" data-spm-anchor-id="a313x.search_index.0.i13.23a63a81l7i8DN" class=""></path><path d="M944.64 505.856c0 238.592-193.536 431.616-431.616 431.616-238.592 0-431.616-193.536-431.616-431.616 0-238.592 193.536-431.616 431.616-431.616 238.592 0 431.616 193.024 431.616 431.616" fill="#FFFFFF" p-id="63724"></path><path d="M763.392 394.752c37.376 0 68.096 28.16 73.216 65.024h16.384c5.632 0 10.752 4.608 10.752 10.752 0 5.632-4.608 10.752-10.752 10.752h-16.384c-5.12 36.864-35.84 65.024-73.216 65.024-40.96 0-74.24-33.792-74.24-75.264 0-42.496 33.28-76.288 74.24-76.288" fill="#8D3F07" p-id="63725"></path><path d="M763.392 413.696c31.232 0 56.32 25.088 56.32 56.32s-25.088 56.32-56.32 56.32-56.32-25.088-56.32-56.32c0-30.72 25.6-56.32 56.32-56.32" fill="#FFE000" p-id="63726" data-spm-anchor-id="a313x.search_index.0.i17.23a63a81l7i8DN" class="selected"></path><path d="M583.168 162.816C512 162.816 454.144 220.16 454.144 291.328S512 419.84 583.168 419.84c71.168 0 128.512-57.344 128.512-128.512s-57.856-128.512-128.512-128.512" fill="#56A85A" p-id="63727"></path><path d="M583.168 177.664c-62.976 0-113.664 50.688-113.664 113.664 0 62.976 50.688 113.664 113.664 113.664 62.976 0 113.664-50.688 113.664-113.664 0-62.976-51.2-113.664-113.664-113.664" fill="#FFFFFF" p-id="63728"></path><path d="M588.8 192.512v87.04l61.44-61.44c-16.384-14.848-37.888-24.576-61.44-25.6M579.072 192c-24.064 1.024-45.568 10.24-61.952 25.088l61.952 61.952v-87.04zM572.416 295.936H483.84c1.024 24.064 10.752 45.568 26.112 62.464l62.464-62.464zM572.416 286.208L509.952 224.256c-15.36 16.384-24.576 38.4-26.112 62.464h88.576zM579.072 303.104L517.12 365.056c16.384 14.848 38.4 24.064 61.952 25.088v-87.04z" fill="#BAD51F" p-id="63729"></path><path d="M595.456 295.936l61.44 61.44c14.848-16.384 24.064-37.888 25.088-61.44h-86.528z" fill="#56A85A" p-id="63730"></path><path d="M588.8 303.104v87.04c23.552-1.536 45.056-10.752 61.44-26.112l-61.44-60.928zM595.456 286.208h86.528c-1.024-23.552-10.24-45.056-25.088-61.44l-61.44 61.44z" fill="#BAD51F" p-id="63731"></path><path d="M721.408 599.552c54.784 92.672 24.064 211.968-68.608 266.752-92.672 54.784-211.968 24.064-266.752-68.608l335.36-198.144z" fill="#30C03F" p-id="63732"></path><path d="M709.632 601.6c51.712 87.04 22.528 199.68-64.512 251.392-87.04 51.712-199.68 22.528-251.392-64.512l315.904-186.88z" fill="#EB4E41" p-id="63733"></path><path d="M689.664 690.176c-7.68 4.608-17.92 1.024-20.48-8.192-1.536-4.608 0-9.728 3.584-13.312 6.656-6.656 17.408-5.12 22.016 2.56 3.584 6.656 1.536 14.848-5.12 18.944M481.28 813.568c-6.656 4.096-15.36 1.536-18.944-5.12-4.096-6.656-1.536-15.36 5.12-18.944 6.656-4.096 15.36-1.536 18.944 5.12 3.584 6.656 1.536 14.848-5.12 18.944M680.96 761.344c-7.68 4.608-17.92 1.024-20.48-8.192-1.536-4.608 0-9.728 3.584-13.312 6.656-6.656 17.408-5.12 22.016 2.56 3.584 6.656 1.024 14.848-5.12 18.944M551.936 837.632c-7.68 4.608-17.92 1.024-20.48-8.192-1.536-4.608 0-9.728 3.584-13.312 6.656-6.656 17.408-5.12 22.016 2.56 3.584 6.656 1.536 14.848-5.12 18.944M630.784 817.664c-7.68 4.608-17.92 1.024-20.48-8.192-1.536-4.608 0-9.728 3.584-13.312 6.656-6.656 17.408-5.12 22.016 2.56 3.584 6.656 1.536 14.848-5.12 18.944" fill="#770000" p-id="63734"></path><path d="M569.344 540.672c54.784 92.672 24.064 211.968-68.608 266.752s-211.968 24.064-266.752-68.608l335.36-198.144z" fill="#30C03F" p-id="63735"></path><path d="M557.568 542.72c51.712 87.04 22.528 199.68-64.512 251.392-87.04 51.712-199.68 22.528-251.392-64.512l315.904-186.88z" fill="#EB4E41" p-id="63736"></path><path d="M537.6 631.296c-7.68 4.608-17.92 1.024-20.48-8.192-1.536-4.608 0-9.728 3.584-13.312 6.656-6.656 17.408-5.12 22.016 2.56 3.584 6.656 1.024 15.36-5.12 18.944M328.704 755.2c-6.656 4.096-15.36 1.536-18.944-5.12-4.096-6.656-1.536-15.36 5.12-18.944 6.656-4.096 15.36-1.536 18.944 5.12 3.584 6.144 1.536 14.848-5.12 18.944M528.384 702.976c-7.68 4.608-17.92 1.024-20.48-8.192-1.536-4.608 0-9.728 3.584-13.312 6.656-6.656 17.408-5.12 22.016 2.56 3.584 6.144 1.536 14.848-5.12 18.944M399.36 779.264c-7.68 4.608-17.92 1.024-20.48-8.192-1.536-4.608 0-9.728 3.584-13.312 6.656-6.656 17.408-5.12 22.016 2.56 3.584 6.144 1.536 14.848-5.12 18.944M478.208 758.784c-7.68 4.608-17.92 1.024-20.48-8.192-1.536-4.608 0-9.728 3.584-13.312 6.656-6.656 17.408-5.12 22.016 2.56 4.096 6.656 1.536 15.36-5.12 18.944" fill="#770000" p-id="63737"></path><path d="M336.896 425.472h-92.16c-28.16 0-51.712-23.04-51.712-51.712 0-28.16 23.04-51.712 51.712-51.712h92.672C365.568 322.048 389.12 345.088 389.12 373.76c-0.512 28.672-23.552 51.712-52.224 51.712z" fill="#2E240F" p-id="63738"></path><path d="M329.216 411.648h-76.8c-20.992 0-37.888-16.896-37.888-37.888 0-20.992 16.896-37.888 37.888-37.888h77.312c20.992 0 37.888 16.896 37.888 37.888-0.512 20.992-17.408 37.888-38.4 37.888z" fill="#FFFFFF" p-id="63739"></path><path d="M279.04 355.84l4.096 6.656c-4.096 2.56-9.216 6.656-11.264 11.264-2.56 4.608-3.584 11.264-3.072 15.872h-8.192c-0.512-6.656 0.512-13.312 4.096-19.968 3.584-6.144 8.192-10.752 14.336-13.824M316.928 358.4l4.096 6.656c-4.096 2.56-9.216 6.656-11.264 11.264-2.56 4.608-3.584 11.264-3.072 15.872h-8.192c-0.512-6.656 0.512-13.312 4.096-19.968 3.072-5.632 8.192-10.752 14.336-13.824" fill="#30C03F" p-id="63740"></path><path d="M336.896 583.168h-92.16c-28.16 0-51.712-23.04-51.712-51.712 0-28.16 23.04-51.712 51.712-51.712h92.672c28.16 0 51.712 23.04 51.712 51.712-0.512 28.16-23.552 51.712-52.224 51.712z" fill="#2E240F" p-id="63741"></path><path d="M329.216 568.832h-76.8c-20.992 0-37.888-16.896-37.888-37.888 0-20.992 16.896-37.888 37.888-37.888h77.312c20.992 0 37.888 16.896 37.888 37.888-0.512 20.992-17.408 37.888-38.4 37.888z" fill="#FFFFFF" p-id="63742"></path><path d="M279.04 513.024l4.096 6.656c-4.096 2.56-9.216 6.656-11.264 11.264-2.56 4.608-3.584 11.264-3.072 15.872h-8.192c-0.512-6.656 0.512-13.312 4.096-19.968 3.584-5.632 8.192-10.752 14.336-13.824M316.928 516.096l4.096 6.656c-4.096 2.56-9.216 6.656-11.264 11.264-2.56 4.608-3.584 11.264-3.072 15.872h-8.192c-0.512-6.656 0.512-13.312 4.096-19.968 3.072-6.144 8.192-10.752 14.336-13.824" fill="#30C03F" p-id="63743"></path></svg>