<?xml version="1.0" standalone="no"?><!DOCTYPE svg PUBLIC "-//W3C//DTD SVG 1.1//EN" "http://www.w3.org/Graphics/SVG/1.1/DTD/svg11.dtd"><svg t="1779954256817" class="icon" viewBox="0 0 1024 1024" version="1.1" xmlns="http://www.w3.org/2000/svg" p-id="3356" xmlns:xlink="http://www.w3.org/1999/xlink" width="200" height="200"><path d="M241.964 623.617c-11.046 0-20-8.954-20-20V575.35c0-11.046 8.954-20 20-20s20 8.954 20 20v28.267c0 11.046-8.954 20-20 20zM609.435 764.952c-11.046 0-20-8.954-20-20v-28.268c0-11.046 8.954-20 20-20s20 8.954 20 20v28.268c0 11.046-8.955 20-20 20zM524.634 595.351c-11.046 0-20-8.954-20-20v-28.267c0-11.046 8.954-20 20-20s20 8.954 20 20v28.267c0 11.045-8.954 20-20 20zM411.566 777.429c-11.046 0-20-8.954-20-20v-60.288c0-11.046 8.954-20 20-20s20 8.954 20 20v60.288c0 11.046-8.954 20-20 20zM807.303 664.361c-11.046 0-20-8.954-20-20v-60.288c0-11.046 8.954-20 20-20s20 8.954 20 20v60.288c0 11.046-8.954 20-20 20zM694.706 460.561c-6.421 0-12.726-3.085-16.591-8.806-6.184-9.152-3.776-21.585 5.376-27.769 29.604-20 47.277-53.236 47.277-88.905 0-59.111-48.09-107.201-107.201-107.201-59.11 0-107.2 48.09-107.2 107.201 0 35.669 17.674 68.905 47.277 88.904 9.152 6.184 11.56 18.616 5.376 27.769-6.183 9.152-18.613 11.561-27.769 5.376-40.629-27.448-64.885-73.074-64.885-122.049 0-81.167 66.034-147.201 147.201-147.201s147.201 66.034 147.201 147.201c0 48.974-24.256 94.6-64.885 122.049a19.894 19.894 0 0 1-11.177 3.431z" p-id="3357" fill="#f4ea2a"></path><path d="M729.562 263.214a19.928 19.928 0 0 1-13.412-5.169c-8.191-7.411-8.823-20.058-1.413-28.249L849.005 81.395c7.413-8.191 20.061-8.821 28.249-1.412 8.191 7.411 8.823 20.058 1.413 28.249L744.399 256.633a19.95 19.95 0 0 1-14.837 6.581zM510.5 948.687c-118.127 0-232.025-42.865-320.71-120.7-87.859-77.109-145.054-183.022-161.049-298.229a76.99 76.99 0 0 1 18.195-61.168 76.546 76.546 0 0 1 57.737-26.306h323.548c21.12 0 41.091 8.478 54.792 23.259 17.812 19.217 38.872 34.345 62.596 44.964 24.577 11 50.806 16.578 77.957 16.578s53.38-5.578 77.957-16.578c23.725-10.619 44.785-25.747 62.597-44.963 13.7-14.782 33.672-23.26 54.792-23.26h97.413a76.543 76.543 0 0 1 57.737 26.306 76.988 76.988 0 0 1 18.194 61.169c-15.994 115.206-73.188 221.119-161.048 298.228-88.684 77.834-202.58 120.7-320.708 120.7z m-82.278-466.404H104.674c-10.719 0-20.511 4.465-27.571 12.574a37.006 37.006 0 0 0-8.741 29.401c14.675 105.699 67.169 202.889 147.813 273.665C297.56 869.35 402.086 908.687 510.5 908.687c108.414 0 212.94-39.337 294.325-110.764 80.645-70.776 133.139-167.966 147.812-273.665a37.001 37.001 0 0 0-8.74-29.401c-7.061-8.108-16.853-12.574-27.571-12.574h-97.413c-10.021 0-19.3 3.81-25.456 10.451-21.492 23.188-46.925 41.451-75.591 54.282-29.751 13.316-61.479 20.068-94.299 20.068s-64.547-6.752-94.299-20.068c-28.665-12.831-54.098-31.094-75.59-54.282-6.156-6.642-15.434-10.451-25.456-10.451z" p-id="3358" fill="#f4ea2a"></path></svg>